<svg xmlns="http://www.w3.org/2000/svg" viewBox="0 0 200 200" width="200" height="200">
  <!-- 顶部蓝色环 -->
  <path d="M100 30 C125 30, 145 50, 145 75 C145 100, 125 120, 100 120 C75 120, 55 100, 55 75 C55 50, 75 30, 100 30" fill="none" stroke="#6B8EAD" stroke-width="10" stroke-linecap="round"/>
  <!-- 左下绿色环 -->
  <path d="M70 80 C90 80, 110 95, 110 115 C110 140, 90 160, 70 160 C50 160, 30 140, 30 115 C30 95, 50 80, 70 80" fill="none" stroke="#5A8A7A" stroke-width="10" stroke-linecap="round"/>
  <!-- 右下深绿色环 -->
  <path d="M130 80 C150 80, 170 95, 170 115 C170 140, 150 160, 130 160 C110 160, 90 140, 90 115 C90 95, 110 80, 130 80" fill="none" stroke="#7A9A6A" stroke-width="10" stroke-linecap="round"/>
  <!-- 文字 -->
  <text x="100" y="192" text-anchor="middle" font-family="Arial, sans-serif" font-size="18" font-weight="bold" fill="#333">melecs</text>
</svg>